<?xml version="1.0" encoding="UTF-8" standalone="no"?>
<svg width="50px" height="50px" viewBox="0 0 50 50" version="1.1" xmlns="http://www.w3.org/2000/svg" xmlns:xlink="http://www.w3.org/1999/xlink">
    <!-- Generator: Sketch 3.7.2 (28276) - http://www.bohemiancoding.com/sketch -->
    <title>announcement_on</title>
    <desc>Created with Sketch.</desc>
    <defs></defs>
    <g id="Page-1" stroke="none" stroke-width="1" fill="none" fill-rule="evenodd">
        <g id="Desktop" transform="translate(-87.000000, -1299.000000)">
            <g id="announcement" transform="translate(87.000000, 1299.000000)">
                <g id="Group" transform="translate(7.000000, 5.000000)">
                    <g id="Content_Collection">
                        <g id="Icons">
                            <g id="Group">
                                <g transform="translate(2.000000, 0.000000)" id="Shape">
                                    <g transform="translate(4.000000, 18.000000)">
                                        <path d="M3.99828649,20 C1.92603174,20 2.07005653e-08,17.026309 1,16 L3.19405969,2 L7.0000001,5 L8.0000001,16 C8.99999962,18 7.09281746,20 5.0000001,20 L3.99828649,20 Z" fill="#FFD8D6"></path>
                                        <path d="M4.02384128,2 L6.8807936,4.93897152 L8,16.453545 C7.96615539,18.2843994 6.28092698,20 4.49883294,20 C2.73657886,20 1.06885629,18.3228173 1,16.5147736 L4.02384128,2 L4.02384128,2 Z M3.375,0 L0,16.3333333 C0,18.7763333 2.14425,21 4.5,21 C6.85575,21 9,18.7763333 9,16.3333333 L7.875,4.66666667 L3.375,0 L3.375,0 L3.375,0 Z" fill="#767676"></path>
                                    </g>
                                    <g transform="translate(0.000000, 2.000000)">
                                        <path d="M1.75366667,18.7538196 C1.42,18.6296835 1,18.327028 1,18.1378683 L1,9.86213168 C1,9.59139687 1.49,9.32775555 1.7525,9.24618043 L28.489,1 C28.7771667,1.03546744 29,1.28492179 29,1.58639505 L29,26.4136049 C29,26.7150782 28.7771667,26.9645326 28.489,27 L1.75366667,18.7538196 L1.75366667,18.7538196 Z" fill="#FFFFFF"></path>
                                        <path d="M29,1 L29,26 L1.39565217,17.7499641 C1.25686957,17.6949639 1.09130435,17.600507 1,17.5275719 L1,9.44253671 C1.084,9.38036252 1.2373913,9.30144914 1.35426087,9.26438376 L29,1 L29,1 Z M28.8,0 L1.2,8.2173913 C1.2,8.2173913 0,8.56604348 0,9.39130435 L0,17.6086957 C0,18.3611739 1.2,18.7826087 1.2,18.7826087 L28.8,27 C29.46,27 30,26.4717391 30,25.826087 L30,1.17391304 C30,0.52826087 29.46,0 28.8,0 L28.8,0 L28.8,0 Z" fill="#767676"></path>
                                    </g>
                                    <g transform="translate(25.000000, 0.000000)">
                                        <path d="M1.58333333,33 C1.2625,33 1,32.7345185 1,32.4074074 L1,1.59259259 C1,1.26548148 1.2625,1 1.58333333,1 L7.41666667,1 C7.7375,1 8,1.26548148 8,1.59259259 L8,32.4074074 C8,32.7345185 7.7375,33 7.41666667,33 L1.58333333,33 L1.58333333,33 Z" fill="#FFFFFF"></path>
                                        <path d="M7,1 L7,32 L1,32 L1,1 L7,1 L7,1 Z M6.85714286,0 L1.14285714,0 C0.514285714,0 0,0.530357143 0,1.17857143 L0,31.8214286 C0,32.4696429 0.514285714,33 1.14285714,33 L6.85714286,33 C7.48571429,33 8,32.4696429 8,31.8214286 L8,1.17857143 C8,0.530357143 7.48571429,0 6.85714286,0 L6.85714286,0 L6.85714286,0 Z" fill="#767676"></path>
                                    </g>
                                </g>
                                <path d="M0.5,20 L0.5,20 C0.225,20 0,19.7428571 0,19.4285714 L0,12.5714286 C0,12.2571429 0.225,12 0.5,12 L0.5,12 C0.775,12 1,12.2571429 1,12.5714286 L1,19.4285714 C1,19.7428571 0.775,20 0.5,20 L0.5,20 Z" id="Shape" fill="#767676"></path>
                            </g>
                        </g>
                    </g>
                </g>
            </g>
        </g>
    </g>
</svg>